<svg xmlns="http://www.w3.org/2000/svg" viewBox="0 0 512 512">
	<path
		d="m450.69,89.4c-4.61-12.36-11.55-19.93-20.68-22.51q-1.27-.35-153.66-17.31l-151.16-16.81c-.71-.08-1.44-.12-2.16-.12-5.23,0-10.4,2.04-15.39,6.06l-.07.06c-4.8,3.92-14.22,14.03-23.48,37.72l-2.02,5.17,42.77,119.1.11,4.98-72.79,57.98.63,182.28,309.92,36.62,81.89-66.19-.58-161.93c19.33-74.75,21.38-125.73,6.68-165.1ZM116.94,50.23h0c1.73-1.39,4.29-3.01,6.6-2.75l280.18,31.21c-5.86,7.01-11.29,16.92-16.09,29.25l-287.12-31.99c6.73-16.11,13.01-22.92,16.43-25.71Zm39.69,46.93l230.55,25.68,39.44,109.89-281.52-31.36h0c9.81-32.3,13.87-71.73,11.54-104.22Zm-55.47-6.17l40.55,4.52h0c2.34,26.77-.23,59.44-7.23,88.29l-33.33-92.81Zm25.86,132.06v44.98l-48.91-5.45,48.91-39.53Zm-59.43,209.79l-.56-156.52,287.6,32.03.55,156.52-287.59-32.03Zm292.17-138.88l-218.44-24.33v-53.59l276.71,30.82-58.27,47.09Zm10.3,163.7l-.55-152.42,59.72-48.27.55,152.42-59.72,48.27Zm66.9-240.16l-36.46-101.52c7.64-20.71,15.08-28.95,18.91-32.05,2.85-2.31,5.33-3.18,7.37-2.61,3.72,1.05,7.9,6.93,11.05,15.71,10.14,28.21,9.34,78.38-.86,120.46h0Z" />
	<path
		d="m225.33,321.18c-.22-5.73-4.83-10.88-10.29-11.57h-.11c-5.53-.62-9.81,3.53-9.58,9.3.21,3.78,2.12,7.27,5.19,9.49l-1.95,22.57,15.81,1.8-3.72-23.12c3.1-1.64,4.93-4.97,4.65-8.46Z" />
</svg>