<svg xmlns="http://www.w3.org/2000/svg" viewBox="0 0 512 512">
	<path
		d="m114.95,206.39c2.11-13.17-.69-27.28-7.87-39.72-7.19-12.45-18.01-21.92-30.47-26.68-13.34-5.1-26.96-4.28-38.34,2.28-22.63,13.07-28.59,45.27-13.27,71.78,7.18,12.45,18,21.92,30.47,26.68,5.52,2.15,11.39,3.27,17.31,3.31,7.38.03,14.64-1.9,21.03-5.59,11.38-6.57,18.89-17.96,21.15-32.06Zm-23.93-3.83c-1.08,6.76-4.4,12.05-9.34,14.91s-11.18,3.08-17.58.63c-7.28-2.78-13.72-8.52-18.13-16.16-8.48-14.69-6.46-32.41,4.41-38.69,2.73-1.55,5.83-2.35,8.97-2.32,2.95.03,5.86.6,8.61,1.68,7.28,2.78,13.72,8.52,18.13,16.16,4.41,7.64,6.16,16.09,4.93,23.78Z" />
	<path
		d="m117.57,156.2c8.6,6.88,18.43,10.46,28.36,10.46,2.98,0,5.94-.32,8.85-.95,25.53-5.55,41.02-34.41,34.51-64.33h0c-3.05-14.04-10.47-26.36-20.89-34.69-11.16-8.92-24.37-12.3-37.21-9.5-25.53,5.55-41.02,34.41-34.51,64.33,3.05,14.04,10.47,26.36,20.89,34.69Zm18.77-75.34c1.18-.25,2.38-.38,3.58-.38,4.5,0,9.14,1.76,13.35,5.13,6.09,4.86,10.47,12.29,12.34,20.91h0c3.6,16.58-3.71,32.84-15.98,35.5-5.57,1.21-11.59-.48-16.94-4.75-6.09-4.87-10.47-12.29-12.34-20.91-3.6-16.58,3.71-32.84,15.98-35.51h0Z" />
	<path
		d="m358.06,142.27c-11.38-6.57-25-7.38-38.34-2.28-12.46,4.76-23.28,14.24-30.47,26.68-7.18,12.45-9.98,26.55-7.87,39.72,2.26,14.1,9.77,25.49,21.15,32.06,6.39,3.69,13.65,5.62,21.03,5.59,5.92-.04,11.79-1.16,17.31-3.31,12.46-4.76,23.28-14.24,30.47-26.68,15.31-26.52,9.36-58.72-13.27-71.78Zm-7.71,59.67c-4.41,7.64-10.85,13.38-18.13,16.16-6.4,2.44-12.64,2.22-17.58-.63s-8.25-8.15-9.34-14.91c-1.23-7.69.52-16.14,4.93-23.78,4.41-7.64,10.85-13.38,18.13-16.16,2.74-1.08,5.66-1.65,8.61-1.68,3.14-.03,6.24.76,8.97,2.32,10.87,6.27,12.89,23.99,4.41,38.68h0Z" />
	<path
		d="m241.54,165.7c2.91.63,5.87.95,8.85.95,9.93,0,19.76-3.58,28.36-10.46,10.42-8.33,17.84-20.65,20.89-34.69,6.5-29.92-8.98-58.78-34.51-64.33-12.84-2.79-26.06.58-37.21,9.5-10.42,8.33-17.84,20.65-20.89,34.69-6.5,29.92,8.98,58.78,34.51,64.33Zm-10.84-59.18h0c1.87-8.62,6.26-16.05,12.34-20.91,4.22-3.37,8.85-5.13,13.35-5.13,1.2,0,2.41.12,3.58.38,12.27,2.67,19.59,18.93,15.98,35.5-1.87,8.62-6.26,16.05-12.34,20.91-5.35,4.28-11.36,5.96-16.94,4.75-12.27-2.66-19.59-18.92-15.98-35.5Z" />
	<path
		d="m249.77,372.77v-7.61c-.05,0-.1,0-.15,0h-102.91c-20.07,0-36.34-16.27-36.35-36.34,0-3.27.44-6.52,1.31-9.67l13.82-50.09c11.07-40.14,52.58-63.7,92.72-52.63,25.58,7.06,45.57,27.04,52.63,52.63l13.82,50.09c1.06,3.78,1.46,7.66,1.28,11.48h24.21c.02-.61.05-1.21.05-1.82,0-5.44-.73-10.86-2.18-16.11l-13.82-50.09c-14.63-53.04-69.48-84.17-122.52-69.54-33.8,9.32-60.21,35.74-69.54,69.54l-13.82,50.09c-8.9,32.25,10.04,65.61,42.29,74.5,5.25,1.45,10.67,2.18,16.11,2.18h102.91c.05,0,.1,0,.15,0v-16.62Z" />
	<polygon
		points="367.27 473.27 367.27 372.77 266.77 372.77 266.77 347.65 367.27 347.65 367.27 247.15 392.4 247.15 392.4 347.65 492.89 347.65 492.89 372.77 392.4 372.77 392.4 473.27 367.27 473.27" />
</svg>