<svg xmlns="http://www.w3.org/2000/svg" viewBox="0 0 512 512">
	<path
		d="m191.22,391.1L25.22,191.83l47.86-95.73h236.27l47.86,95.73-166,199.27Zm-56.18-206.74h112.37l-35.3-70.61h-41.76l-35.3,70.61Zm47.36,168.75v-151.1H56.93l125.47,151.1Zm17.65,0l125.47-151.1h-125.47v151.1Zm66.94-168.75h66.47l-35.3-70.61h-66.47l35.3,70.61Zm-218.01,0h66.47l35.3-70.61h-66.47l-35.3,70.61Z" />
	<polygon
		points="367.27 473.27 367.27 372.77 266.77 372.77 266.77 347.65 367.27 347.65 367.27 247.15 392.4 247.15 392.4 347.65 492.89 347.65 492.89 372.77 392.4 372.77 392.4 473.27 367.27 473.27" />
</svg>